{"title":"Red.Riding.Hood.2011.R5.XViD.AC3-BiONiK","uid":6420400,"size":884574748,"categoryP":"video","categoryS":"movies","magnet":"?xt=urn:btih:3b342cfeb57e0a7d13c4e58b46bd27f3d29b160a&amp;dn=Red.Riding.Hood.2011.R5.XViD.AC3-BiONiK&amp;tr=udp%3A%2F%2Ftracker.openbittorrent.com%3A80&amp;tr=udp%3A%2F%2Fopen.demonii.com%3A1337&amp;tr=udp%3A%2F%2Ftracker.coppersurfer.tk%3A6969&amp;tr=udp%3A%2F%2Fexodus.desync.com%3A6969","seeders":0,"leechers":1,"uploader":"TvTeam","files":6,"time":1306297717,"description":". \n  &lt;a href=&quot;\nhttp://www.torrenting.com/&quot; rel=&quot;nofollow&quot; target=&quot;_NEW&quot;&gt;\nhttp://www.torrenting.com/&lt;/a&gt;        :     Greatest Movie Tracker on The Net!!!\n &lt;a href=&quot;\nhttp://www.Torrenting.com&quot; rel=&quot;nofollow&quot; target=&quot;_NEW&quot;&gt;\nhttp://www.Torrenting.com&lt;/a&gt;          :     Once &amp; For all ;)\n\n\n               www . Torrenting . Com \n\n(((((((((((((= Enjoy No RAR releases =))))))))))))))))))))\n\n\n...................................NFO:....................................\n\n.STORYLINE\n\nSet in a medieval village that is haunted by a werewolf, a young girl falls for an orphaned woodcutter, much to her family's displeasure.\n\nCAST\n\nGary Oldman\t ...\tFather Solomon\nBilly Burke\t ...\tCesaire\nShiloh Fernandez\t ...\t\nPeter\nMax Irons\t ...\tHenry Lazar\nVirginia Madsen\t ...\tSuzette\nLukas Haas\t ...\tFather Auguste\nJulie Christie\t ...\tGrandmother\n\nINFO\n\nFile size : 834 MiB\nDuration : 1h 39mn\nOverall bit rate : 1 169 Kbps\n\nVideo\nID : 1\nFormat : xvid\nCodec ID : xvid\nDuration : 1h 39mn\nBit rate : 954 Kbps\nWidth : 640 pixels\nHeight : 272 pixels\nDisplay aspect ratio : 2.35:1\nFrame rate : 29.970 fps\nBits/(Pixel*Frame) : 0.183\nStream size : 680 MiB (82%)\n\nAudio\nID : 2\nFormat : AC-3\nFormat/Info : Audio Coding 3\nMode extension : CM (complete main)\nMuxing mode : Header stripping\nCodec ID : A_AC3\nDuration : 1h 39mn\nBit rate mode : Constant\nBit rate : 192 Kbps\nChannel(s) : 2 channels\nChannel positions : Front: L R\nSampling rate : 44.1 KHz\nBit depth : 16 bits\nCompression mode : Lossy\nStream size : 137 MiB (16%)","torrent":{"xt":"urn:btih:3b342cfeb57e0a7d13c4e58b46bd27f3d29b160a","amp;dn":"Red.Riding.Hood.2011.R5.XViD.AC3-BiONiK","amp;tr":["udp%3A%2F%2Ftracker.openbittorrent.com%3A80","udp%3A%2F%2Fopen.demonii.com%3A1337","udp%3A%2F%2Ftracker.coppersurfer.tk%3A6969","udp%3A%2F%2Fexodus.desync.com%3A6969"],"infoHash":"3b342cfeb57e0a7d13c4e58b46bd27f3d29b160a","infoHashBuffer":{"type":"Buffer","data":[59,52,44,254,181,126,10,125,19,196,229,139,70,189,39,243,210,155,22,10]},"announce":[],"urlList":[]}}